Coordinates
version=1
nRows=24
nColumns=22
inDegrees=yes

Units are S.I. units (second, meters, Newtons, ...)
If the header above contains a line with 'inDegrees', this indicates whether rotational values are in degrees (yes) or radians (no).

endheader
time	pelvis_tilt	pelvis_list	pelvis_rotation	pelvis_tx	pelvis_ty	pelvis_tz	hip_flexion_r	hip_adduction_r	hip_rotation_r	knee_angle_r	ankle_angle_r	subtalar_angle_r	hip_flexion_l	hip_adduction_l	hip_rotation_l	knee_angle_l	ankle_angle_l	subtalar_angle_l	lumbar_extension	lumbar_bending	lumbar_rotation
      5.74000000	      0.05277171	     -1.38251688	   -104.37907634	      0.77855394	      1.01579942	      0.57077741	      9.42780001	      6.57630219	    -16.81563420	    -18.10524523	      8.50495419	    -10.24271265	     15.50391429	     -7.18403560	     -1.63935963	    -53.84840994	      5.98024821	     11.16084429	     -3.17590822	     -2.31700470	     -0.27594762
      5.75000000	      0.09545392	     -1.41897379	   -105.50574204	      0.77353928	      1.01597129	      0.57562175	      8.86070401	      6.84932182	    -15.87212625	    -17.82212470	      8.57547525	    -10.26761490	     16.09363421	     -7.08814116	     -1.57601773	    -52.58576025	      6.39626894	     10.97940214	     -3.25820456	     -2.51706274	      0.14174750
      5.76000000	      0.13716331	     -1.45897957	   -106.64885895	      0.76858692	      1.01607260	      0.58036979	      8.30162839	      7.09694355	    -14.91366222	    -17.56500793	      8.66320801	    -10.29953597	     16.63323678	     -6.97044078	     -1.46632290	    -51.22744219	      6.75669215	     10.90009700	     -3.34608763	     -2.70621946	      0.54942395
      5.77000000	      0.17059626	     -1.49844389	   -107.80371257	      0.76368239	      1.01609915	      0.58502133	      7.75280049	      7.32790964	    -13.95029896	    -17.33576075	      8.77169846	    -10.33205678	     17.12968154	     -6.83796145	     -1.29418593	    -49.78897735	      7.04141852	     10.89968894	     -3.43374161	     -2.88021193	      0.94410367
      5.78000000	      0.19103260	     -1.53867045	   -108.96300976	      0.75885090	      1.01606014	      0.58958308	      7.20911732	      7.54448561	    -12.99141984	    -17.12962488	      8.90489319	    -10.35667937	     17.58414890	     -6.69398661	     -1.05385961	    -48.28213266	      7.22969965	     10.94128087	     -3.52554399	     -3.02702741	      1.32091888
      5.79000000	      0.19311644	     -1.57903725	   -110.11923294	      0.75408569	      1.01595824	      0.59406867	      6.66559524	      7.75267988	    -12.04514955	    -16.94245324	      9.06146960	    -10.36529776	     18.00151179	     -6.54651683	     -0.73917275	    -46.72816881	      7.32907381	     10.99279358	     -3.62014653	     -3.14212380	      1.67743367
      5.80000000	      0.17386945	     -1.62260393	   -111.27009153	      0.74937080	      1.01580504	      0.59849471	      6.11338768	      7.95593048	    -11.10809990	    -16.76845411	      9.23688437	    -10.35149317	     18.37935405	     -6.40430823	     -0.35876454	    -45.14026296	      7.36169866	     11.03743816	     -3.72052730	     -3.22284723	      2.01427016
      5.81000000	      0.13053211	     -1.66146133	   -112.40983582	      0.74469451	      1.01560401	      0.60288126	      5.55656699	      8.16181536	    -10.18119974	    -16.60564860	      9.42223881	    -10.31765321	     18.72684229	     -6.27869012	      0.07607843	    -43.52965547	      7.35095467	     11.06891940	     -3.81777289	     -3.26825461	      2.33301721
      5.82000000	      0.06726684	     -1.69589509	   -113.53033004	      0.74004768	      1.01536338	      0.60725996	      4.98826533	      8.36798772	     -9.25939116	    -16.44202241	      9.61255553	    -10.26660192	     19.04683099	     -6.16772410	      0.56145459	    -41.90580761	      7.31757778	     11.08859154	     -3.90982123	     -3.28139834	      2.61899112
      5.83000000	     -0.01494898	     -1.73055041	   -114.63556001	      0.73542747	      1.01510202	      0.61164094	      4.40553373	      8.57181311	     -8.33686446	    -16.28220397	      9.80302819	    -10.19787299	     19.33111736	     -6.07456101	      1.06673078	    -40.26576905	      7.27432536	     11.09860942	     -4.00527812	     -3.26868689	      2.89333921
      5.84000000	     -0.11305578	     -1.78418270	   -115.71236644	      0.73084895	      1.01485428	      0.61607417	      3.78650306	      8.75886331	     -7.42817566	    -16.11950962	      9.99994184	    -10.09139298	     19.56029001	     -5.98143548	      1.59357576	    -38.60871828	      7.23940053	     11.09586787	     -4.12037764	     -3.24032417	      3.12362470
      5.85000000	     -0.21131655	     -1.76937695	   -116.79307672	      0.72625438	      1.01447340	      0.62049874	      3.23588898	      8.96231753	     -6.48755700	    -15.97515952	     10.18538244	    -10.03843932	     19.84249167	     -5.93673349	      2.07531252	    -36.96602601	      7.17728146	     11.10831480	     -4.15503854	     -3.17653942	      3.37593525
      5.86000000	     -0.31759785	     -1.77469917	   -117.85440315	      0.72168272	      1.01410146	      0.62496731	      2.65966235	      9.14307220	     -5.55014125	    -15.84366702	     10.38195062	     -9.96315784	     20.07338377	     -5.89199625	      2.53323425	    -35.31268810	      7.13911193	     11.13416366	     -4.21183832	     -3.11069700	      3.60265915
      5.87000000	     -0.42335337	     -1.76534117	   -118.90112778	      0.71712088	      1.01367455	      0.62946590	      2.10219023	      9.31196823	     -4.61536037	    -15.73604771	     10.58808372	     -9.88922660	     20.29982509	     -5.86000092	      2.94630514	    -33.66513760	      7.10584453	     11.19610305	     -4.24949994	     -3.03469026	      3.81191538
      5.88000000	     -0.52666686	     -1.74407854	   -119.94101273	      0.71254863	      1.01319047	      0.63397950	      1.56829744	      9.46768204	     -3.68366629	    -15.66495061	     10.80692219	     -9.81927514	     20.52092820	     -5.84033033	      3.30648739	    -32.03031827	      7.08274395	     11.31421089	     -4.27107854	     -2.95530729	      4.01210422
      5.89000000	     -0.62107190	     -1.70753550	   -120.97025682	      0.70798234	      1.01263844	      0.63850376	      1.06695904	      9.60705079	     -2.76033223	    -15.63250155	     11.04294367	     -9.76097914	     20.74614366	     -5.82572936	      3.61804916	    -30.41372602	      7.06711780	     11.50004139	     -4.27341391	     -2.87497947	      4.19484656
      5.90000000	     -0.70174981	     -1.65665237	   -121.99391318	      0.70341586	      1.01201675	      0.64304557	      0.60047850	      9.72668409	     -1.84279767	    -15.64061174	     11.30048188	     -9.72043868	     20.97344101	     -5.81094439	      3.88293105	    -28.81446624	      7.05326213	     11.75264441	     -4.25265232	     -2.79505990	      4.36428300
      5.91000000	     -0.76904721	     -1.60475678	   -123.00879722	      0.69885832	      1.01134474	      0.64759836	      0.16220378	      9.82060231	     -0.94294976	    -15.69644150	     11.57813106	     -9.69190356	     21.18802806	     -5.78465195	      4.12505636	    -27.23043511	      7.05020901	     12.08226373	     -4.22555341	     -2.72476327	      4.51376863
      5.92000000	     -0.82023560	     -1.54604779	   -124.00944359	      0.69431871	      1.01061462	      0.65217088	     -0.24135935	      9.88990376	     -0.07580807	    -15.79518844	     11.87699940	     -9.68201895	     21.39639109	     -5.74376837	      4.37066531	    -25.66175751	      7.04606124	     12.46154033	     -4.18293393	     -2.66265845	      4.64184250
      5.93000000	     -0.85554784	     -1.49041679	   -124.99492519	      0.68980184	      1.00984173	      0.65675648	     -0.61985045	      9.93080222	      0.76434821	    -15.93120608	     12.19498800	     -9.68375387	     21.58891308	     -5.68322038	      4.63338843	    -24.10953252	      7.04102581	     12.88419768	     -4.13904101	     -2.61371233	      4.74724235
      5.94000000	     -0.87984868	     -1.43303254	   -125.95691013	      0.68531753	      1.00902060	      0.66137921	     -0.97113588	      9.94909058	      1.55851634	    -16.10504475	     12.52718195	     -9.69238685	     21.76770058	     -5.60591301	      4.94874636	    -22.57504514	      7.02850832	     13.31425338	     -4.08854443	     -2.56953333	      4.82407829
      5.95000000	     -0.89623096	     -1.37666175	   -126.89454551	      0.68084933	      1.00815761	      0.66602189	     -1.30439038	      9.94973012	      2.31828357	    -16.30459949	     12.87198249	     -9.69507413	     21.93066538	     -5.51763524	      5.32350710	    -21.06473383	      7.00619930	     13.74930364	     -4.03850901	     -2.53317093	      4.87562693
      5.96000000	     -0.91080884	     -1.31631062	   -127.80399697	      0.67642132	      1.00725289	      0.67070778	     -1.62256589	      9.93845103	      3.03963214	    -16.52159257	     13.22358122	     -9.68253203	     22.08288869	     -5.42641944	      5.76508597	    -19.58903849	      6.97229880	     14.16777209	     -3.98881304	     -2.48861933	      4.90187992
      5.97000000	     -0.93010253	     -1.24802191	   -128.69003384	      0.67196441	      1.00630546	      0.67540963	     -1.93340981	      9.92947268	      3.72608370	    -16.74744409	     13.57732669	     -9.64719036	     22.22634605	     -5.35010229	      6.27153377	    -18.16026385	      6.93341638	     14.56124027	     -3.93687660	     -2.44111511	      4.90879567
